<svg xmlns="http://www.w3.org/2000/svg" viewBox="0 0 100 100">
  <defs>
    <linearGradient id="leafGrad" x1="0%" y1="0%" x2="100%" y2="100%">
      <stop offset="0%" stop-color="#15803d" />
      <stop offset="100%" stop-color="#166534" />
    </linearGradient>
  </defs>
  <!-- Background container -->
  <rect width="100" height="100" rx="24" fill="#ffffff" />
  <rect width="84" height="84" x="8" y="8" rx="18" fill="url(#leafGrad)" />
  
  <!-- Stylized leaf in white -->
  <path d="M50 24 C32 38 34 65 50 76 C66 65 68 38 50 24 Z" fill="#ffffff" />
  <!-- Leaf details -->
  <path d="M50 24 V76" stroke="#15803d" stroke-width="2.5" stroke-linecap="round" />
  <path d="M50 38 C42 43 41 48 40 48" stroke="#15803d" stroke-width="2" stroke-linecap="round" fill="none" />
  <path d="M50 48 C42 53 41 58 40 58" stroke="#15803d" stroke-width="2" stroke-linecap="round" fill="none" />
  <path d="M50 43 C58 48 59 53 60 53" stroke="#15803d" stroke-width="2" stroke-linecap="round" fill="none" />
  <path d="M50 53 C58 58 59 63 60 63" stroke="#15803d" stroke-width="2" stroke-linecap="round" fill="none" />
</svg>
